<?xml version="1.0" standalone="no"?>
<!DOCTYPE svg PUBLIC "-//W3C//DTD SVG 20010904//EN"
 "http://www.w3.org/TR/2001/REC-SVG-20010904/DTD/svg10.dtd">
<svg version="1.0" xmlns="http://www.w3.org/2000/svg"
 width="1024.000000pt" height="1024.000000pt" viewBox="0 0 1024.000000 1024.000000"
 preserveAspectRatio="xMidYMid meet">
<metadata>
Created by potrace 1.16, written by Peter Selinger 2001-2019
</metadata>
<g transform="translate(0.000000,1024.000000) scale(0.100000,-0.100000)"
fill="#000000" stroke="none">
<path d="M4950 8904 c-25 -2 -101 -8 -170 -14 -713 -61 -1374 -309 -1925 -724
-153 -115 -261 -210 -435 -385 -628 -629 -988 -1370 -1095 -2251 -22 -183 -31
-580 -16 -750 32 -365 107 -702 231 -1037 86 -231 316 -685 355 -700 18 -6 87
33 685 391 545 325 870 516 882 516 4 0 8 -259 8 -575 0 -377 -3 -575 -10
-575 -7 0 -10 -198 -10 -573 0 -534 1 -575 18 -589 22 -20 202 -98 353 -154
240 -88 549 -162 839 -201 169 -23 723 -26 890 -5 390 48 759 145 1080 284 96
41 127 59 135 78 8 17 9 193 4 555 -9 679 -11 1755 -3 1755 10 0 326 -186 894
-525 647 -387 671 -400 692 -393 31 12 215 354 308 573 320 750 382 1613 174
2439 -165 660 -489 1230 -975 1715 -649 650 -1413 1029 -2269 1126 -129 15
-546 27 -640 19z m-1896 -1565 c20 -16 26 -29 27 -62 0 -42 1 -43 115 -130 64
-49 118 -86 122 -83 3 4 -2 22 -12 40 -10 19 -16 48 -14 67 l3 34 85 0 85 0
-2 -40 c-1 -22 -5 -74 -9 -116 l-6 -77 46 -33 c25 -19 45 -37 46 -41 0 -5
-238 -8 -530 -8 -291 0 -530 3 -530 8 0 4 15 19 34 34 40 32 49 67 35 140 -5
29 -12 72 -16 96 l-6 43 89 -3 89 -3 3 -34 c2 -19 -2 -44 -8 -56 -7 -12 -10
-29 -8 -38 2 -11 35 8 121 70 l117 85 0 43 c0 35 5 48 26 64 15 12 37 21 49
21 12 0 34 -9 49 -21z m2096 -169 c12 -12 20 -33 20 -53 0 -29 9 -40 100 -110
79 -60 100 -73 100 -57 0 10 -4 22 -10 25 -5 3 -10 24 -10 46 l0 39 69 0 c80
0 97 -12 87 -62 -22 -112 -21 -123 19 -166 l37 -41 -74 -3 -73 -3 702 -488
c385 -268 706 -494 712 -501 8 -9 11 -82 9 -229 l-3 -216 -130 100 c-232 178
-540 400 -1065 767 -496 347 -515 360 -540 347 -14 -8 -351 -243 -750 -523
l-725 -510 -3 201 c-1 111 -1 206 2 212 2 6 266 196 586 421 l582 409 -71 3
c-39 2 -71 5 -71 8 0 3 14 19 31 35 31 28 31 31 25 97 -3 37 -7 83 -8 102 l-3
35 75 0 c71 0 75 -1 78 -23 2 -13 -2 -37 -9 -53 -6 -16 -9 -32 -6 -35 3 -3 50
26 105 65 96 69 100 73 99 108 -2 63 69 97 113 53z m-1612 -484 c3 -115 -2
-130 -41 -131 l-22 0 0 -540 0 -540 30 -5 30 -5 3 -100 c4 -126 0 -143 -36
-147 l-27 -3 -3 -511 c-2 -393 -5 -514 -15 -522 -14 -11 -852 -457 -880 -467
-16 -7 -17 17 -15 456 l3 464 352 3 353 2 5 23 c3 12 2 36 -3 52 l-8 30 -339
3 c-237 1 -342 6 -352 14 -8 6 -13 25 -11 42 l3 31 245 5 245 5 0 50 0 50
-130 7 c-71 4 -173 4 -226 1 -140 -8 -138 -10 -141 140 l-3 122 -32 3 c-49 5
-54 18 -51 138 l3 109 40 5 40 5 0 540 0 540 -30 0 c-52 1 -55 7 -55 124 0 59
3 111 7 114 3 4 243 6 532 5 l526 -3 3 -109z m2321 -796 l720 -525 1 -1800 0
-1800 -83 -32 c-259 -102 -732 -229 -781 -210 -14 6 -16 71 -16 585 0 639 1
631 -65 771 -26 54 -54 92 -108 146 -114 113 -238 165 -397 165 -253 0 -463
-152 -552 -400 -23 -65 -23 -65 -26 -667 l-3 -603 -28 0 c-143 0 -850 210
-883 263 -4 7 -8 809 -8 1783 0 1401 3 1773 13 1786 10 14 271 203 1306 950
91 65 170 117 177 116 7 -2 337 -239 733 -528z m1979 -916 c182 -37 329 -119
454 -253 153 -164 228 -352 228 -573 0 -179 -43 -332 -131 -469 -53 -81 -139
-171 -159 -166 -8 2 -299 173 -645 379 -347 206 -652 388 -678 403 -27 15 -51
35 -54 43 -3 8 2 40 12 71 91 290 364 522 675 574 63 11 227 6 298 -9z"/>
<path d="M2965 6381 c-76 -19 -145 -79 -170 -150 -12 -35 -15 -97 -15 -328 0
-261 1 -284 18 -291 9 -4 105 -7 212 -7 107 0 203 3 213 7 16 7 17 30 17 291
0 331 -3 349 -79 420 -36 34 -60 47 -100 56 -57 12 -53 12 -96 2z"/>
<path d="M5090 6101 c-24 -7 -25 -10 -26 -93 0 -47 -4 -92 -7 -101 -5 -13 -24
-17 -89 -19 l-83 -3 0 -45 0 -45 85 -5 85 -5 3 -207 c2 -197 3 -208 23 -218
11 -6 32 -10 47 -8 l27 3 6 215 c3 118 6 216 7 218 1 1 40 2 87 2 l85 0 0 50
0 50 -78 0 c-47 0 -83 5 -90 12 -8 8 -12 46 -12 104 0 106 -5 113 -70 95z"/>
<path d="M5013 5100 c-108 -36 -191 -116 -232 -225 -20 -54 -21 -74 -21 -530
0 -453 1 -474 19 -480 80 -25 676 -20 708 7 12 9 13 92 11 482 -3 466 -3 472
-26 528 -72 179 -279 277 -459 218z"/>
<path d="M4567 3673 c-4 -3 -7 -24 -7 -45 l0 -38 548 2 547 3 0 40 0 40 -541
3 c-297 1 -544 -1 -547 -5z"/>
<path d="M4494 3485 c-14 -58 -49 -55 616 -55 l610 0 0 40 0 40 -610 0 -610 0
-6 -25z"/>
</g>
</svg>
