<?xml version="1.0" encoding="utf-8"?>
<!-- Generator: Adobe Illustrator 23.0.5, SVG Export Plug-In . SVG Version: 6.00 Build 0)  -->
<svg version="1.1" xmlns="http://www.w3.org/2000/svg" xmlns:xlink="http://www.w3.org/1999/xlink" x="0px" y="0px"
	 viewBox="0 0 2560 1600" style="enable-background:new 0 0 2560 1600;" xml:space="preserve">
<style type="text/css">
	.st0{display:none;}
	.st1{display:inline;fill:#9E5151;}
	.st2{fill:#FBA501;}
	.st3{fill:#FCFCFC;}
	.st4{fill:#FBFBFB;}
	.st5{fill:#FAFAFA;}
	.st6{fill:#F4F4F4;}
	.st7{fill:#F8F8F8;}
	.st8{fill:#F0F0F0;}
	.st9{fill:#014D82;}
	.st10{fill:#01C700;}
	.st11{fill:#FDFDFD;}
	.st12{fill:#FBFCFC;}
	.st13{fill:#FDCB00;}
	.st14{fill:#00609E;}
	.st15{fill:#FFFFFF;}
</style>
<g id="Capa_2" class="st0">
	<rect x="-293.76" y="-266.88" class="st1" width="3087.36" height="1895.04"/>
</g>
<g id="Capa_1">
	<g>
		<path class="st2" d="M933.66,801.19c0.36,216.28-177.03,395.53-399,391.74c-212.57-3.62-384.78-177.13-384.93-391.87
			c-0.15-217.3,177.87-396.19,399.8-391.98C762.9,413.14,934.03,587.78,933.66,801.19z M383.12,908.31c0,3.23,0.02,5.22,0,7.21
			c-0.66,69.97-1.28,139.93-2.08,209.9c-0.05,4.14,1.31,6.1,4.98,7.8c53.87,24.93,110.43,36.43,169.74,34.2
			c48.68-1.83,95.18-12.9,139.49-33.22c2.96-1.36,4.32-2.77,4.27-6.22c-0.5-34.65-0.91-69.3-1.18-103.95
			c-0.29-36.49-0.43-72.98-0.59-109.47c-0.01-1.73-0.56-3.59,0.79-5.56c2.77,1.57,5.51,3.07,8.2,4.66
			c46.58,27.54,93.17,55.07,139.68,82.73c3.34,1.99,4.8,1.73,6.89-1.66c32.48-52.62,50.85-109.78,54.46-171.47
			c3.69-62.87-7.84-122.92-34.83-179.99c-58.79-124.27-185.1-206.32-322.68-209.02c-56.46-1.11-111.03,8.86-161.84,33.75
			c-125.95,61.7-197.59,162.75-211.83,302.31c-8.05,78.86,10.6,152.82,51.56,220.92c3.88,6.44,3.88,6.49,10.58,2.51
			c34.35-20.43,68.66-40.91,103.03-61.3C355.15,924.49,368.68,916.73,383.12,908.31z M362.31,1018.2c0.53,0,1.05,0,1.58,0
			c0-24.15,0-48.31,0-72.46c0-5.39-0.04-5.42-4.83-2.59c-36.39,21.47-72.77,42.96-109.15,64.44c-8.4,4.96-8.51,5.03-2.9,13.35
			c28.07,41.65,65.29,72.92,109.5,96.21c5.66,2.98,5.78,2.93,5.79-3.51C362.33,1081.83,362.31,1050.02,362.31,1018.2z
			 M715.51,940.91c-1.12,2.19-0.67,4.02-0.66,5.77c0.23,33.98,0.52,67.96,0.76,101.93c0.16,22.16,0.37,44.31,0.31,66.47
			c-0.01,4.52,1.29,4.64,4.78,2.85c9.03-4.63,17.87-9.59,26.33-15.19c34.67-22.94,64.84-50.42,87.18-85.91
			c2.25-3.58,1.78-5.04-1.81-7.14c-35.74-20.9-71.36-42-107.02-63.03C722.12,944.75,718.86,942.87,715.51,940.91z"/>
		<path class="st3" d="M2401.27,935.55c-50.86-0.4-91.2-27.53-106.26-68.85c-19.65-53.92,7.91-113.53,62.32-132.33
			c44.15-15.25,85.33-8.64,119.57,24.11c52.89,50.59,36.51,145.4-42.71,171.42C2422.24,933.83,2409.95,935.7,2401.27,935.55z
			 M2451.11,836.09c0.17-35.22-16.2-56.44-44.45-60.65c-22.84-3.4-43.84,4.86-54.79,25.92c-6.66,12.81-8.18,26.59-6.01,40.79
			c6.45,42.22,46.78,53.97,75.55,40.66C2442.96,872.83,2450.47,853.91,2451.11,836.09z"/>
		<path class="st3" d="M1617.3,831.22c0-32.16,0.07-64.31-0.08-96.47c-0.02-3.94,0.71-5.46,5.08-5.4
			c27.81,0.43,55.67-0.97,83.44,0.63c48.83,2.81,87.07,36.02,92.36,86.42c2.87,27.37-0.98,53.23-17.28,76.09
			c-17.46,24.48-42.13,36.95-71.52,39.45c-29.39,2.51-58.94,0.45-88.41,1.03c-4.06,0.08-3.6-2.24-3.6-4.78
			C1617.31,895.87,1617.3,863.54,1617.3,831.22z M1672.32,830.98c0,17.15,0.06,34.3-0.05,51.44c-0.02,2.88,0.55,4.23,3.8,4.08
			c5.65-0.25,11.32,0.09,16.98-0.1c22.44-0.75,39.33-12.39,46.07-31.89c4.8-13.9,5.2-28.08,1.36-42.24
			c-5.69-20.99-21.22-34.19-42.72-36.13c-7.1-0.64-14.31-0.03-21.46-0.38c-3.53-0.17-4.06,1.21-4.04,4.29
			C1672.39,797.02,1672.32,814,1672.32,830.98z"/>
		<path class="st3" d="M2227.56,822.11c13.5,0,26.99,0.1,40.49-0.07c3.25-0.04,4.21,0.82,4.19,4.15c-0.14,25.83-0.13,51.65,0,77.48
			c0.01,3.06-1.17,4.77-3.45,6.56c-22.9,17.98-49.5,24.15-77.92,25.21c-28.44,1.06-54.72-5.28-77.21-23.14
			c-31.56-25.06-44.17-58.43-38.04-97.85c6.15-39.55,29.55-66.59,66.87-80.2c33.49-12.21,66.72-10.27,98.12,8
			c8.26,4.81,15.25,11.23,21.57,18.42c1.82,2.07,1.85,3.27-0.34,5.13c-10.92,9.27-21.78,18.62-32.47,28.15
			c-2.65,2.36-3.99,2.08-6.27-0.47c-15.39-17.26-34.83-22.3-56.67-16.66c-22.14,5.71-32.22,22.4-35.27,43.73
			c-2.53,17.67,0.02,34.62,11.14,49.32c9.94,13.14,23.67,18.91,39.84,19.39c12.75,0.37,25.21-1.09,37.15-6.02
			c3.15-1.3,4.11-2.94,4.07-6.29c-0.15-12.25-0.01-12.25-12.47-12.25c-8,0-16-0.12-23.99,0.06c-3.06,0.07-4-0.89-3.96-3.97
			c0.16-11.33,0.22-22.66-0.02-33.99c-0.08-3.67,0.79-4.85,4.64-4.77C2200.9,822.27,2214.23,822.11,2227.56,822.11z"/>
		<path class="st3" d="M1409.01,830.84c0,16.98,0,32.61,0,48.24c0,16-0.1,32,0.08,48c0.04,3.52-0.98,4.49-4.46,4.44
			c-14.33-0.18-28.67-0.2-43,0.01c-3.62,0.05-4.39-1.16-4.39-4.55c0.09-66.16,0.06-132.33,0.08-198.49c0-1.78-0.55-4.09,1.4-4.95
			c1.97-0.86,3.24,1.23,4.6,2.35c40.12,33.04,80.23,66.1,120.36,99.13c1.48,1.22,2.7,2.89,5.27,3.49c0-1.81,0-3.41,0-5
			c0-30.16,0.07-60.33-0.09-90.49c-0.02-3.81,0.79-5.09,4.86-5.01c13.99,0.27,28,0.23,41.99,0.02c3.57-0.05,4.82,0.62,4.81,4.55
			c-0.13,66.5-0.09,132.99-0.12,199.49c0,1.56,0.75,3.73-1.2,4.43c-1.72,0.62-2.98-1.15-4.23-2.17
			c-39.91-32.78-79.79-65.57-119.69-98.37C1413.53,834.49,1411.75,833.06,1409.01,830.84z"/>
		<path class="st4" d="M1914.25,831.07c0-32.15,0.08-64.3-0.09-96.45c-0.02-4.12,1.06-5.27,5.22-5.25
			c44.31,0.15,88.62,0.14,132.94,0.01c3.9-0.01,5.06,0.98,4.97,4.96c-0.27,12.32-0.27,24.66,0,36.98c0.08,3.87-1.13,4.65-4.78,4.63
			c-26.15-0.16-52.31-0.01-78.46-0.17c-3.59-0.02-4.84,0.66-4.75,4.57c0.29,12.49,0.24,24.99,0.02,37.48
			c-0.06,3.51,0.91,4.41,4.39,4.38c21.32-0.16,42.65,0.04,63.97-0.18c4.25-0.04,5.24,1.25,5.14,5.3c-0.27,11.15-0.28,22.33,0,33.48
			c0.1,4.06-0.88,5.34-5.13,5.29c-21.15-0.23-42.31,0-63.47-0.2c-3.87-0.04-5.33,0.91-4.87,4.88c0.58,5.06-2.13,11.67,1.14,14.83
			c3.01,2.91,9.52,0.78,14.48,0.8c23.82,0.08,47.64,0.14,71.46-0.07c4.07-0.04,4.94,1.23,4.87,5.04
			c-0.23,12.49-0.2,24.99-0.01,37.48c0.05,3.34-0.96,4.14-4.2,4.13c-46.14-0.1-92.29-0.13-138.43,0.03
			c-4.1,0.01-4.49-1.57-4.48-4.97C1914.29,895.7,1914.25,863.39,1914.25,831.07z"/>
		<path class="st3" d="M1056.13,934.5c-22.98-0.02-44.5-5.22-63.88-18.01c-7.01-4.63-12.81-10.57-18.42-16.77
			c-2.31-2.55-1.83-3.84,0.79-5.75c11.16-8.16,22.23-16.44,33.16-24.9c2.77-2.15,4.18-1.8,6.36,0.76
			c13.16,15.45,29.74,21.85,49.9,18.06c2.43-0.46,4.87-1.2,7.1-2.24c9.63-4.5,10.73-17.22,1.98-23.26
			c-6.95-4.81-15.2-6.62-23.02-9.38c-11.91-4.19-24.04-7.7-35.2-13.92c-39.2-21.84-38.02-74.74-10.6-96.83
			c11.23-9.05,24.05-14.28,38.24-15.74c21.08-2.17,41.56-0.1,60.49,10.52c6.16,3.45,11.47,7.93,16.45,12.9
			c2.14,2.13,2.14,3.5,0.02,5.68c-8.73,8.93-17.36,17.96-25.86,27.11c-2.3,2.47-3.63,2.72-6.22,0.18
			c-10.53-10.29-23.25-13.79-37.65-11.01c-6.76,1.31-11.15,5.63-11.85,11.21c-0.84,6.7,1.72,11.44,9.12,14.27
			c11.02,4.21,22.3,7.73,33.47,11.53c6.62,2.25,13.04,4.98,19.32,8.08c24.07,11.87,34.82,31.29,33.27,57.89
			c-1.77,30.53-20.19,51.12-51.17,57.16C1073.4,933.71,1064.81,934.48,1056.13,934.5z"/>
		<path class="st3" d="M1137.74,931.44c12-25.09,23.56-49.25,35.12-73.41c20.9-43.67,41.81-87.34,62.73-131.01
			c0.75-1.57,0.99-3.92,3.31-3.85c1.99,0.06,2.29,2.21,2.98,3.65c31.8,66.67,63.54,133.37,95.43,200c2.07,4.33,0.94,4.74-3.13,4.69
			c-15.66-0.17-31.33-0.16-47,0.01c-3.25,0.03-5.57-0.51-6.29-3.98c-2.42-11.73-9.68-14.4-21.11-13.73
			c-18.77,1.1-37.65,0.37-56.48,0.23c-3.07-0.02-5.2,0.52-5.83,3.79c-2.27,11.75-9.34,14.98-20.92,13.88
			C1164.05,930.53,1151.33,931.44,1137.74,931.44z M1216.58,873.06c12.88,0,25-0.04,37.12,0.03c2.61,0.02,2.71-0.96,1.81-2.98
			c-6.28-14.04-12.52-28.1-19.15-43.02C1229.61,842.78,1223.21,857.65,1216.58,873.06z"/>
		<path class="st4" d="M1823.75,831.53c0-32.32,0.08-64.64-0.09-96.95c-0.02-4.13,1.07-5.29,5.22-5.22
			c15.16,0.26,30.32,0.21,45.48,0.02c3.53-0.04,4.44,1.03,4.44,4.5c-0.1,64.8-0.11,129.6,0.01,194.41c0.01,3.78-1.04,4.75-4.76,4.7
			c-15.32-0.21-30.65-0.2-45.98,0c-3.58,0.05-4.4-1.09-4.39-4.5C1823.8,896.16,1823.75,863.85,1823.75,831.53z"/>
		<path class="st5" d="M1442.42,649.68c0-14.31,0.18-28.63-0.11-42.94c-0.09-4.31,1.25-5.19,5.29-5.09
			c11.48,0.28,22.96,0.06,34.45,0.11c26.98,0.12,46.58,19.76,46.67,46.71c0.07,22.44-9.97,38.6-28.54,45.9
			c-6.58,2.59-13.45,3.68-20.48,3.72c-10.98,0.06-21.97-0.13-32.95,0.1c-3.64,0.08-4.42-1.22-4.39-4.58
			C1442.5,678.97,1442.42,664.32,1442.42,649.68z M1468.87,649.71c0,7.5-0.03,15,0.03,22.5c0.01,1.33-0.64,2.93,1.59,3.59
			c10.25,3.04,24.35-3.22,28.78-13.09c3.66-8.15,3.77-16.58,0.48-24.78c-3.56-8.87-10.55-13.43-20.08-13.99
			c-2.49-0.15-5.01,0.12-7.49-0.09c-2.66-0.23-3.42,0.77-3.37,3.38C1468.97,634.71,1468.87,642.21,1468.87,649.71z"/>
		<path class="st4" d="M1713,650c0-14.66,0.12-29.32-0.09-43.98c-0.05-3.59,1.07-4.41,4.48-4.35c11.99,0.2,23.99-0.02,35.98,0.1
			c25.16,0.25,44.31,18.6,45.7,43.66c1.74,31.5-17.37,52.11-48.96,52.65c-10.99,0.19-21.99-0.09-32.98,0.11
			c-3.31,0.06-4.23-0.94-4.19-4.2C1713.09,679.32,1713,664.66,1713,650z M1739.36,649.59c0,7.49-0.03,14.99,0.03,22.48
			c0.01,1.5-0.62,3.23,1.99,3.77c12.19,2.5,24.46-3.53,28.93-14.42c8.72-21.23-5.87-40.42-28.48-37.63
			c-2.48,0.31-2.48,1.56-2.48,3.31C1739.37,634.6,1739.36,642.1,1739.36,649.59z"/>
		<path class="st5" d="M1809.99,649.96c0-14.5,0.11-28.99-0.08-43.49c-0.05-3.54,0.58-4.87,4.54-4.82c19.66,0.22,39.32,0.22,58.98,0
			c3.91-0.04,4.83,1.17,4.55,4.78c-0.31,4.14-0.31,8.34,0,12.49c0.28,3.81-0.73,5.19-4.86,5.07c-10.82-0.32-21.66,0.03-32.49-0.19
			c-3.45-0.07-4.68,0.82-4.43,4.39c0.31,4.48,0.26,9,0.01,13.49c-0.17,2.97,0.97,3.6,3.69,3.55c8.83-0.15,17.66,0.08,26.49-0.12
			c3.28-0.07,4.96,0.51,4.57,4.28c-0.57,5.56,2.33,12.86-1.16,16.28c-3.25,3.19-10.47,0.73-15.94,0.88
			c-4.83,0.13-9.67,0.19-14.49-0.02c-4.01-0.18-3.03,2.55-3.07,4.69c-0.04,2.24-0.72,4.69,3.18,4.64
			c11.99-0.17,23.99,0.06,35.99-0.14c3.45-0.06,4.72,0.85,4.48,4.42c-0.3,4.48-0.27,9-0.01,13.49c0.2,3.38-0.71,4.61-4.36,4.58
			c-20.49-0.17-40.99-0.16-61.48-0.01c-3.34,0.02-4.21-1-4.17-4.24C1810.07,679.28,1809.99,664.62,1809.99,649.96z"/>
		<path class="st5" d="M1218.54,699.13c-24.34,0.01-44.99-15.76-49.44-37.75c-5.13-25.33,6.54-48.12,29.42-57.47
			c19.73-8.07,43.76-2.43,56.98,13.18c2.51,2.96,3.33,4.79-0.81,7.08c-4.49,2.48-8.62,5.65-12.78,8.69
			c-2.15,1.57-3.44,1.59-5.29-0.67c-6.99-8.57-16.22-10.68-26.5-7.75c-8.62,2.46-14.51,11.51-15.15,22.06
			c-0.29,4.67-0.1,9.29,1.45,13.79c2.89,8.36,8.34,14.21,17.18,15.6c9.54,1.5,18.48-0.19,24.21-9.04c2.14-3.31,3.71-3.58,6.79-1.29
			c4.12,3.08,8.53,5.82,13.01,8.35c2.81,1.58,2.79,2.96,1.11,5.41C1249.03,693.52,1235.38,699.52,1218.54,699.13z"/>
		<path class="st5" d="M1087.56,698.11c-8.06,0-16.17-0.05-24.28,0.03c-3.08,0.03-3.36-2.53-3.95-4.37
			c-1.06-3.26-2.92-4.15-6.26-4.05c-8.99,0.25-17.99,0.22-26.98,0.01c-3.11-0.07-5.14,0.63-5.82,3.83
			c-0.79,3.73-3.03,4.87-6.81,4.64c-5.64-0.34-11.32-0.18-16.98-0.05c-2.9,0.07-3.95-0.39-2.44-3.53
			c14.85-30.86,29.6-61.77,44.39-92.67c0.49-1.02,0.84-2.5,2.13-2.4c0.68,0.05,1.46,1.27,1.87,2.11
			c15.12,31.66,30.2,63.34,45.26,95.02C1087.82,696.93,1087.65,697.32,1087.56,698.11z M1030.35,669.98
			c5.72,0,10.53-0.08,15.34,0.03c2.61,0.06,2.73-0.94,1.79-2.97c-2.63-5.72-5.16-11.48-8.08-17.99
			C1036.31,656.2,1033.52,662.66,1030.35,669.98z"/>
		<path class="st5" d="M1657.15,698.11c-2.17,0-4.36-0.22-6.49,0.05c-4.85,0.61-8.44-0.49-9.58-5.87c-0.47-2.23-2.12-2.54-4.18-2.52
			c-9.66,0.09-19.33,0.16-28.99-0.04c-2.88-0.06-4.41,0.93-4.98,3.57c-0.92,4.28-3.7,5.14-7.68,4.9
			c-5.15-0.32-10.33-0.26-15.49-0.02c-3.92,0.18-4.57-0.78-2.81-4.39c7.17-14.63,14.09-29.39,21.12-44.09
			c7.46-15.6,14.92-31.2,22.43-46.78c0.61-1.27,0.87-3.33,2.6-3.3c1.72,0.03,1.89,2.12,2.49,3.38
			c14.49,30.3,28.88,60.64,43.44,90.91c1.83,3.8,0.76,4.51-2.9,4.25C1663.16,697.94,1660.15,698.11,1657.15,698.11z M1612.99,669.77
			c6.18,0,11.86,0,18.13,0c-3.06-6.91-5.95-13.42-9.23-20.82C1618.66,656.52,1615.9,662.98,1612.99,669.77z"/>
		<path class="st5" d="M1355.68,698.11c-8.24,0-16.36-0.05-24.47,0.03c-3.07,0.03-3.39-2.53-3.96-4.36
			c-1.02-3.33-2.92-4.15-6.25-4.06c-8.82,0.25-17.65,0.24-26.47,0c-3.48-0.09-5.78,0.66-6.54,4.31c-0.69,3.34-2.71,4.36-6.13,4.17
			c-5.64-0.31-11.32-0.22-16.98-0.04c-3.46,0.11-4.43-0.43-2.67-4.05c11.62-23.93,23.05-47.95,34.53-71.94
			c3.23-6.75,6.42-13.52,9.67-20.26c0.48-1,0.81-2.53,2.15-2.36c0.7,0.09,1.43,1.31,1.84,2.17c15.06,31.5,30.08,63.01,45.09,94.53
			C1355.68,696.65,1355.6,697.19,1355.68,698.11z M1316.64,669.98c-3.14-7.07-6.03-13.59-9.29-20.95
			c-2.94,6.78-5.5,12.69-8.08,18.59c-0.76,1.73-0.22,2.4,1.64,2.38C1305.87,669.94,1310.83,669.98,1316.64,669.98z"/>
		<path class="st5" d="M1096.22,649.74c0-14.49,0.17-28.98-0.11-43.47c-0.08-3.93,1.15-4.77,4.75-4.59
			c5.65,0.28,11.34,0.31,16.98-0.01c3.82-0.21,5.04,0.79,5,4.85c-0.22,21.32,0.04,42.64-0.22,63.96c-0.05,4.44,1.12,5.57,5.49,5.42
			c10.32-0.35,20.65,0.05,30.97-0.2c3.61-0.09,4.53,1.05,4.32,4.47c-0.29,4.81-0.17,9.66-0.03,14.49c0.07,2.46-0.53,3.53-3.3,3.52
			c-20.15-0.11-40.31-0.13-60.46,0.01c-3.7,0.03-3.42-2.04-3.41-4.47C1096.23,679.05,1096.22,664.39,1096.22,649.74z"/>
		<path class="st4" d="M1364.49,649.56c0-14.65,0.08-29.29-0.07-43.93c-0.03-2.99,0.64-4.09,3.83-3.95c5.98,0.26,12,0.37,17.96-0.03
			c4.12-0.28,4.48,1.48,4.46,4.88c-0.13,21.3,0.07,42.61-0.18,63.9c-0.05,4.44,1.12,5.62,5.51,5.47
			c10.47-0.34,20.97,0.01,31.45-0.18c3.11-0.06,4.05,0.85,3.9,3.93c-0.25,4.98-0.16,9.98-0.03,14.97c0.06,2.43-0.49,3.56-3.28,3.54
			c-20.14-0.1-40.27-0.12-60.41,0.01c-3.45,0.02-3.17-1.94-3.16-4.17C1364.5,679.19,1364.49,664.37,1364.49,649.56z"/>
		<path class="st3" d="M1540.11,649.53c0-14.64,0.09-29.29-0.07-43.93c-0.03-3.06,0.75-4.04,3.87-3.93
			c6.48,0.23,12.98,0.15,19.46,0.03c2.36-0.04,3.17,0.71,3.16,3.12c-0.06,29.95-0.08,59.9,0.02,89.85c0.01,3.07-1.31,3.53-3.9,3.47
			c-6.15-0.14-12.32-0.24-18.46,0.03c-3.37,0.15-4.17-1.01-4.14-4.22C1540.2,679.15,1540.11,664.34,1540.11,649.53z"/>
		<path class="st6" d="M2086.22,1015.42c4.31,0,10-1.68,12.56,0.43c3.04,2.51,0.95,8.43,1.01,12.85
			c0.16,12.17-8.36,21.27-22.79,24.71c-16.94,4.04-33.64-3.25-41.08-17.96c-7.84-15.49-4.14-35.31,8.61-46.1
			c15.12-12.8,39.95-10.39,52,4.95c1.84,2.35,2.73,4.09-0.65,5.73c-2.31,1.12-3.73,4.61-6.92,0.17
			c-11.34-15.76-36.16-13.01-44.69,4.65c-8.91,18.43,2.26,39.02,22.3,40.71c9.27,0.78,16.88-2.89,22.59-10.3
			c2.4-3.12,1.17-6.74,1.2-10.15c0.02-1.73-1.66-1.25-2.71-1.27c-4.33-0.05-8.67-0.18-13,0.02c-4.01,0.19-2.98-2.59-3.1-4.73
			c-0.13-2.24-0.3-4.36,3.17-4.13c3.82,0.26,7.66,0.06,11.49,0.06C2086.21,1015.19,2086.21,1015.3,2086.22,1015.42z"/>
		<path class="st7" d="M1458.07,1017.47c0-10.16,0.1-20.31-0.06-30.47c-0.05-3.06,0.52-4.39,4.01-4.3
			c10.15,0.28,20.33-0.22,30.46,0.31c15.69,0.82,28.04,11.18,31.35,25.53c3.75,16.28-2.11,31.62-15,39.12
			c-5.74,3.34-11.98,4.82-18.61,4.81c-9.16-0.02-18.32-0.16-27.47,0.07c-3.59,0.09-4.9-0.69-4.78-4.62
			C1458.28,1037.78,1458.07,1027.62,1458.07,1017.47z M1467.18,1017.5c0,7.65,0.06,15.3-0.04,22.94c-0.03,2.36,0.33,3.7,3.2,3.61
			c7.31-0.24,14.66,0.27,21.93-0.37c14.44-1.28,22.85-11.05,22.87-25.75c0.02-14.78-8.73-25-23.06-26.25
			c-6.93-0.6-13.96-0.12-20.92-0.47c-3.5-0.17-4.12,1.24-4.04,4.34C1467.32,1002.86,1467.18,1010.18,1467.18,1017.5z"/>
		<path class="st6" d="M2273.31,1031.94c0-14.62,0-29.24,0-43.86c0-4.68,4.29-7.29,8.42-5.18c1.43,0.73,1.02,1.97,1.02,3.04
			c0.03,21.16,0.04,42.32-0.01,63.48c-0.01,3.01-2.84,4.27-5.46,2.41c-1.19-0.85-2.08-2.14-3.07-3.27
			c-12.25-14.07-24.49-28.15-36.75-42.21c-1.04-1.19-2.17-2.3-4.12-4.34c0,8.44,0,15.7,0,22.95c0,8-0.24,16.01,0.1,23.99
			c0.18,4.26-2.37,3.51-4.79,3.52c-2.41,0-4.84,0.74-4.79-3.48c0.21-20.49,0.07-40.99,0.16-61.48c0.01-1.56-1.24-3.92,1.34-4.62
			c2.2-0.6,4.05,0.15,5.68,2.07c7.88,9.26,15.9,18.4,23.88,27.58c5.76,6.62,11.53,13.24,17.3,19.85
			C2272.58,1032.24,2272.95,1032.09,2273.31,1031.94z"/>
		<path class="st7" d="M1266.82,1017.62c0-10.33,0.11-20.67-0.07-30.99c-0.05-3.02,0.68-4,3.83-3.92
			c10.16,0.25,20.35-0.22,30.48,0.31c14.93,0.77,26.89,10.26,30.81,23.65c4.33,14.8-0.17,30.45-11.27,38.85
			c-6.18,4.68-13.27,6.86-20.97,6.93c-9.66,0.08-19.33-0.1-28.99,0.1c-3.11,0.06-3.95-0.84-3.89-3.92
			C1266.94,1038.29,1266.82,1027.96,1266.82,1017.62z M1275.99,1017.43c0,7.65,0,15.3,0,22.95c0,1.84-0.32,3.72,2.6,3.64
			c7.64-0.19,15.35,0.34,22.92-0.45c14.44-1.5,22.55-11.64,22.31-26.83c-0.22-13.82-9.47-24.02-23.35-25.1
			c-7.11-0.56-14.29-0.16-21.43-0.41c-3.01-0.1-3.1,1.51-3.07,3.74C1276.04,1002.47,1275.99,1009.95,1275.99,1017.43z"/>
		<path class="st7" d="M1698.15,1033.82c0-16.16,0-31.09,0-46.01c0-4.4,4.34-6.99,8.1-4.87c1.57,0.88,0.88,2.37,0.89,3.57
			c0.05,20.65,0.05,41.3-0.01,61.95c0,1.32,0.93,3.31-1.08,3.86c-1.94,0.53-3.79,0.22-5.33-1.67c-3.58-4.38-7.4-8.56-11.12-12.83
			c-10.17-11.66-20.33-23.31-30.49-34.96c-1.93,0.87-1.08,2.41-1.08,3.53c-0.07,13.82-0.2,27.64,0.05,41.46
			c0.07,3.81-1.02,4.8-4.72,4.73c-3.45-0.07-4.9-0.53-4.86-4.57c0.24-19.81,0.06-39.63,0.19-59.45c0.01-1.89-1.54-4.66,1.33-5.66
			c2.65-0.93,4.53,0.68,6.31,2.77c11.92,13.9,23.96,27.69,35.97,41.51C1693.94,1029.08,1695.6,1030.93,1698.15,1033.82z"/>
		<path class="st6" d="M2135.33,1017.2c0-10.16,0.1-20.32-0.06-30.48c-0.05-2.96,0.63-4.06,3.84-4.03
			c15.99,0.16,31.98,0.19,47.96-0.01c3.82-0.05,3.28,2.1,3.34,4.41c0.07,2.48,0.19,4.37-3.49,4.31
			c-12.65-0.24-25.32,0.04-37.97-0.17c-3.57-0.06-4.63,1.05-4.39,4.5c0.28,3.98,0.21,8,0.01,11.98c-0.13,2.59,0.64,3.44,3.31,3.37
			c6.99-0.18,14,0.14,20.98-0.14c3.43-0.14,3.78,1.39,3.71,4.14c-0.06,2.72,0.04,4.8-3.83,4.63c-6.81-0.3-13.66,0.03-20.48-0.14
			c-2.77-0.07-3.81,0.67-3.7,3.59c0.22,5.65,0.22,11.33,0,16.98c-0.13,3.1,0.91,3.93,3.95,3.9c13.32-0.16,26.65,0.04,39.97-0.14
			c3.44-0.05,4.99,0.4,4.92,4.46c-0.06,3.76-1.42,4.22-4.65,4.19c-16.15-0.15-32.31-0.18-48.46,0.01c-3.79,0.05-5.2-0.75-5.07-4.89
			C2135.55,1037.53,2135.33,1027.36,2135.33,1017.2z"/>
		<path class="st6" d="M2393.16,1017.5c0-10.17,0.1-20.33-0.06-30.5c-0.05-3.07,0.54-4.36,4.03-4.31
			c15.83,0.19,31.66,0.21,47.49-0.01c3.61-0.05,4,1.4,4.02,4.37c0.02,3.05-0.55,4.41-4.08,4.35c-12.49-0.22-25,0.05-37.49-0.17
			c-3.55-0.06-4.64,0.99-4.38,4.45c0.29,3.81,0.25,7.67,0.01,11.49c-0.19,2.96,0.52,4.08,3.76,3.94c6.65-0.28,13.34,0.18,19.99-0.19
			c3.83-0.21,3.79,1.65,3.86,4.43c0.09,3.03-0.45,4.52-4.03,4.36c-6.65-0.3-13.33,0.05-19.99-0.15c-2.87-0.09-3.69,0.85-3.6,3.64
			c0.19,5.66,0.24,11.34-0.01,16.99c-0.14,3.15,0.93,3.89,3.96,3.85c13.33-0.17,26.66,0.02,39.99-0.14c3.21-0.04,4.76,0.39,4.68,4.2
			c-0.07,3.41-0.83,4.5-4.41,4.46c-16.33-0.2-32.66-0.24-48.99,0.01c-4.12,0.06-4.93-1.33-4.84-5.09
			C2393.33,1037.5,2393.16,1027.5,2393.16,1017.5z"/>
		<path class="st7" d="M1817.92,1017.64c0-10.33,0.12-20.67-0.07-31c-0.06-3.11,0.88-3.95,3.93-3.92
			c15.83,0.14,31.67,0.19,47.5-0.03c3.71-0.05,3.82,1.6,3.91,4.44c0.11,3.2-0.77,4.29-4.14,4.24c-12.33-0.2-24.67,0.1-36.99-0.18
			c-4.08-0.09-5.2,1.25-4.88,5.09c0.31,3.81,0.22,7.67,0.02,11.49c-0.14,2.65,0.8,3.37,3.38,3.31c7-0.16,14.01,0.17,20.99-0.15
			c3.78-0.17,3.4,1.92,3.43,4.34c0.03,2.48,0.22,4.53-3.45,4.4c-6.82-0.25-13.67,0.08-20.49-0.14c-3.16-0.1-3.99,1-3.87,4
			c0.22,5.49,0.31,11.01-0.03,16.49c-0.22,3.6,1.32,4.04,4.34,4.01c13.16-0.13,26.33,0.03,39.5-0.12c3.32-0.04,5.05,0.23,5.1,4.41
			c0.05,4.52-2.32,4.16-5.28,4.15c-16.17-0.05-32.33-0.12-48.5,0.05c-3.44,0.04-4.56-0.85-4.48-4.41
			C1818.08,1037.97,1817.92,1027.8,1817.92,1017.64z"/>
		<path class="st6" d="M1353.81,1051.92c10.9-22.33,21.65-44.27,32.3-66.25c1.11-2.29,2.55-3.13,5.05-2.96
			c2.34,0.16,4.27,0,5.63,2.79c10.34,21.22,20.85,42.36,31.43,63.46c1.58,3.15,0.51,3.39-2.37,3.61c-4.29,0.31-7.08-0.68-8.81-5.09
			c-1.8-4.58-3.53-10.58-7.17-12.68c-3.9-2.25-10.01-0.72-15.16-0.76c-6.33-0.05-12.66,0.1-18.98-0.07
			c-2.35-0.06-3.67,0.72-4.58,2.84c-1.31,3.05-2.82,6.02-4.29,9.01C1363.15,1053.32,1363.14,1053.31,1353.81,1051.92z
			 M1406.2,1025.21c-5.08-10.12-9.73-19.4-14.72-29.36c-4.64,9.34-8.88,17.95-13.2,26.52c-1.08,2.15-0.63,2.89,1.81,2.87
			C1388.55,1025.16,1397.01,1025.21,1406.2,1025.21z"/>
		<path class="st6" d="M1171.99,1010c0-7.83,0.28-15.68-0.11-23.49c-0.23-4.53,2.49-3.57,5.03-3.78c3.01-0.25,4.37,0.39,4.31,3.96
			c-0.24,13.16-0.27,26.33-0.05,39.49c0.26,16.29,3,19.85,21.43,19.33c15.13-0.42,17.66-3.73,17.69-18.96
			c0.03-13.16,0.21-26.33-0.11-39.49c-0.1-4.32,1.88-4.29,5.06-4.38c3.36-0.1,4.68,0.67,4.55,4.36c-0.55,16.47,0.94,32.99-0.8,49.42
			c-1.01,9.54-6.02,14.53-15.34,16.62c-8.21,1.84-16.48,1.94-24.72,0.16c-11.35-2.46-16.61-8.94-16.94-20.73c-0.01-0.33,0-0.67,0-1
			C1171.99,1024.33,1171.99,1017.17,1171.99,1010z"/>
		<path class="st6" d="M1024.05,1017.55c0.02-16.01,8.81-29.19,22.79-34.18c15.04-5.36,31.88-1.08,41.29,10.56
			c1.46,1.8,3.98,3.68,0.18,5.77c-2.53,1.39-4.27,5.07-7.65,0.1c-5.94-8.74-17.61-11.82-28.65-8.71
			c-9.3,2.62-17.05,11.84-18.07,21.8c-0.72,7.05-0.36,13.97,3.55,20.25c10.31,16.53,33.46,16.87,44.93,0.71
			c1.14-1.6,1.51-5.49,5.19-2.3c2.6,2.26,5.82,3.32,2.46,7.98c-9.13,12.66-26.17,18.21-42.35,13.06
			C1033.23,1047.99,1024.02,1034.37,1024.05,1017.55z"/>
		<path class="st6" d="M2338.01,982.77c10,0,19.99,0.13,29.99-0.08c3.23-0.07,4.02,1.08,3.83,4.04c-0.17,2.59,0.3,4.87-3.75,4.67
			c-6.98-0.34-14,0.1-20.98-0.17c-3.49-0.14-4.48,0.89-4.44,4.4c0.18,17.32-0.05,34.65,0.18,51.98c0.05,3.99-1.08,4.95-4.98,5.03
			c-4.23,0.09-4.82-1.52-4.78-5.19c0.17-17.33,0.01-34.65,0.14-51.98c0.02-3.13-0.63-4.38-4.07-4.24c-6.99,0.28-14-0.11-20.99,0.16
			c-3.47,0.13-4.17-1.19-4.1-4.31c0.06-2.9,0.29-4.51,3.97-4.41C2318.01,982.96,2328.01,982.77,2338.01,982.77z"/>
		<path class="st5" d="M1763.01,982.79c9.82,0,19.65,0.18,29.47-0.1c3.63-0.1,4,1.41,4.04,4.37c0.04,3.11-0.64,4.45-4.13,4.3
			c-6.81-0.29-13.66,0.19-20.47-0.19c-4.17-0.23-4.88,1.33-4.84,5.07c0.19,16.98,0.03,33.96,0.12,50.95
			c0.02,3.26,0.19,5.55-4.48,5.44c-4.22-0.09-4.78-1.62-4.75-5.24c0.16-17.15-0.04-34.3,0.16-51.44c0.04-3.69-0.82-4.94-4.66-4.77
			c-6.98,0.32-13.99-0.16-20.97,0.19c-4.03,0.2-3.57-2.04-3.72-4.63c-0.17-2.89,0.49-4.11,3.77-4.04
			C1742.7,982.93,1752.86,982.79,1763.01,982.79z"/>
		<path class="st7" d="M1906.7,1017.5c0-9.83,0.07-19.65-0.04-29.48c-0.04-3.27-0.17-5.44,4.5-5.44c4.78,0.01,4.82,2.12,4.79,5.69
			c-0.13,17.15,0.05,34.31-0.15,51.46c-0.04,3.59,1.02,4.4,4.46,4.34c12.15-0.21,24.32,0.07,36.47-0.17
			c3.67-0.07,4.3,1.22,4.37,4.54c0.07,3.44-1.12,4.12-4.26,4.09c-15.32-0.14-30.64-0.19-45.96,0.03c-3.75,0.05-4.31-1.31-4.25-4.59
			C1906.82,1037.82,1906.7,1027.65,1906.7,1017.5z"/>
		<path class="st8" d="M103.18,973.94c1,0,2,0,3,0c9.97,0,10.26-0.03,11.45,9.97c1.23,10.3,0.14,20.34-9.35,26.75
			c-9.3,6.28-19.48,6.45-29.36,1.28c-10.91-5.71-16.1-22.32-11.32-34.13c0.88-2.17,1.94-2.21,3.77-1.77
			c2.03,0.49,2.73,1.26,1.95,3.48c-1.81,5.15-1.94,10.43-0.32,15.69c2.82,9.17,11.98,14.29,22.69,12.7
			c9.97-1.48,16.05-8.03,16.4-17.67c0.04-1,0.03-2,0-2.99c-0.16-6.39-0.44-6.66-6.8-6.67c-1.16,0-2.36,0.17-3.49-0.03
			c-4.7-0.81-6.13,1.25-5.64,5.72c0.19,1.76,1.32,4.52-2.52,4.64c-4.26,0.13-2.8-2.92-2.78-4.83c0.03-3.95-1.81-9.38,0.73-11.43
			c2.41-1.94,7.62-0.42,11.6-0.42C103.18,974.13,103.18,974.04,103.18,973.94z"/>
		<path class="st8" d="M91.19,654.19c5.9-7.74,10.55-9.81,16.94-7.55c6.28,2.22,9.96,8.35,9.82,16.35
			c-0.12,7.26-3.85,13.23-9.43,15.08c-6.12,2.03-11.29-0.26-16.67-7.72c-3.56,3.92-7.37,7.65-13.28,6.44
			c-3.19-0.65-5.86-2.21-7.83-4.93c-4.56-6.27-3.84-16.97,1.53-21.62C77.73,645.5,84.05,646.82,91.19,654.19z M112.86,662.22
			c0.03-5.28-3.43-9.16-8.3-9.28c-4.99-0.13-10.41,5.22-10.33,10.18c0.07,4.05,5.06,8.39,9.68,8.42
			C108.97,671.58,112.82,667.57,112.86,662.22z M80.08,670.33c4.2,0.11,8.63-4.31,8.69-8.65c0.04-3.3-4.33-7.38-8.07-7.53
			c-4.47-0.18-7.66,3.01-7.81,7.79C72.75,666.72,75.75,670.22,80.08,670.33z"/>
		<path class="st8" d="M96.53,593.45c0.47,0.98,0.66,1.43,0.89,1.85c4.78,8.91,2.54,17.98-5.39,21.8
			c-8.67,4.16-19.79-0.25-23.18-9.21c-3.46-9.13,0.84-17.85,10.34-20.94c18.79-6.12,37.78,5.36,38.71,23.41
			c0.11,2.12,0.71,4.36-2.9,4.32c-3.14-0.04-2.8-1.89-2.94-3.94C111.41,601.55,106.03,595.39,96.53,593.45z M84.25,611.66
			c5.99,0.12,10.27-3.54,10.46-8.94c0.19-5.33-3.57-10.01-8.12-10.11c-7.79-0.17-13.36,3.76-13.46,9.49
			C73.04,607.56,77.66,611.54,84.25,611.66z"/>
		<path class="st8" d="M97.21,731.5c3.94,7.74,3.55,14.56-1.1,19.41c-4.39,4.58-12.14,5.78-18.55,2.87
			c-6.88-3.12-10.51-9.59-9.62-17.47c0.74-6.53,4.73-10.59,10.73-12.42c10.62-3.25,20.8-1.93,29.88,4.6
			c6.54,4.7,8.87,11.77,9.37,19.55c0.11,1.76,0.17,3.23-2.41,3.24c-2.44,0.01-3.43-0.5-3.53-3.26c-0.33-8.94-4.84-14.93-13.5-17.6
			c-0.58-0.03-1.16-0.07-1.73-0.1C96.91,730.7,97.06,731.1,97.21,731.5z M84.36,748.36c6.04,0.04,10.27-3.65,10.36-9.04
			c0.09-5.25-3.86-10.1-8.24-10.13c-7.65-0.05-13.33,4.09-13.36,9.73C73.09,744.37,77.78,748.31,84.36,748.36z"/>
		<path class="st6" d="M92.02,831.45c-4.56-0.18-11.53-0.5-17.59-4.69c-9.82-6.81-8.91-20.77,2.03-25.5
			c10.67-4.61,21.76-4.34,32.48,0.1c5.84,2.42,8.96,7.28,8.98,13.75c0.02,6.38-3.46,10.54-8.95,13.21
			C104.4,830.55,99.45,831.15,92.02,831.45z M93.25,824.59c4.41-0.39,9.07-0.41,13.43-2.39c3.26-1.48,5.72-3.56,5.77-7.35
			c0.05-4.08-2.62-6.47-6.11-7.61c-9.1-2.98-18.32-3.03-27.4,0.08c-3.32,1.14-5.71,3.58-5.78,7.38c-0.06,3.62,2.33,5.71,5.31,7.17
			C83.06,824.11,88.06,824.3,93.25,824.59z"/>
		<path class="st8" d="M91.11,869.32c-5.86-0.31-11.59-1.12-16.6-4.54c-9.67-6.61-9.17-20.42,1.4-25.29
			c11.26-5.19,23.09-5.14,34.2,0.49c10.58,5.36,10.5,19.48,0.3,25.54C105.99,868.14,97.83,869.76,91.11,869.32z M93.43,862.48
			c4.41-0.26,9.24-0.37,13.7-2.53c3-1.46,5.3-3.57,5.32-7.17c0.02-3.84-2.35-6.25-5.66-7.4c-9.23-3.2-18.59-3.24-27.85-0.11
			c-3.35,1.13-5.69,3.59-5.77,7.36c-0.08,3.63,2.35,5.7,5.31,7.16C83.07,862.04,88.05,862.3,93.43,862.48z"/>
		<path class="st8" d="M92.71,907.28c-6.38-0.11-12.63-0.82-18.11-4.5c-9.92-6.66-9.25-20.63,1.65-25.52
			c10.95-4.92,22.35-4.66,33.34,0.33c5.63,2.56,8.38,7.42,8.33,13.65c-0.06,6.16-3.45,10.22-8.73,12.86
			C104.02,906.68,98.39,907.19,92.71,907.28z M93.39,900.42c4.47-0.28,9.3-0.41,13.76-2.54c3.01-1.44,5.28-3.59,5.31-7.18
			c0.02-3.59-2.09-6-5.24-7.17c-9.52-3.52-19.18-3.54-28.73-0.11c-3.14,1.13-5.29,3.58-5.32,7.14c-0.03,3.6,2.32,5.7,5.32,7.15
			C83.09,899.93,88.06,900.23,93.39,900.42z"/>
		<path class="st8" d="M1989.28,1016.96c0-10.3,0.19-20.61-0.09-30.91c-0.12-4.39,2.47-3.76,5.13-3.8c2.64-0.04,4.7-0.22,4.66,3.73
			c-0.19,20.94-0.2,41.88,0.01,62.81c0.04,3.96-1.95,3.85-4.6,3.71c-2.49-0.13-5.33,0.93-5.2-3.64
			C1989.47,1038.23,1989.28,1027.59,1989.28,1016.96z"/>
		<path class="st8" d="M1610.06,1017.59c0,10.31-0.22,20.63,0.11,30.93c0.13,4.11-1.85,4.13-4.8,4.02c-2.71-0.1-5.07,0.45-5.02-3.88
			c0.22-20.78,0.2-41.57,0.01-62.36c-0.04-4.03,1.9-4.14,4.88-4.09c2.82,0.04,5.04-0.27,4.92,3.95
			C1609.85,996.63,1610.06,1007.12,1610.06,1017.59z"/>
		<path class="st8" d="M83.72,766.04c3.83,0,7.67-0.12,11.49,0.04c2.46,0.11,3.8-0.4,3.49-3.25c-0.19-1.72-0.55-3.67,2.48-3.74
			c3.1-0.07,3.25,1.7,2.94,3.83c-0.42,3,1.23,3.28,3.55,3.14c1.99-0.12,4.01,0.11,5.99-0.06c2.5-0.22,3.56,0.49,3.5,3.25
			c-0.05,2.56-0.75,3.39-3.4,3.48c-9.61,0.34-9.61,0.45-9.61,10c0,2.83,0.04,5.67-0.01,8.5c-0.06,3.72-2.12,5.16-5.28,3.06
			c-9.71-6.44-19.19-13.23-28.76-19.87c-2.65-1.84-1.65-4.6-1.38-6.88c0.33-2.82,2.95-1.34,4.5-1.44
			C76.71,765.89,80.22,766.04,83.72,766.04z M98.67,787.76c0-4.77,0.01-8.39-0.01-12.01c-0.01-1.29,0.3-2.98-1.64-3.01
			c-6.28-0.1-12.56-0.04-19.87-0.04C84.82,778.07,91.31,782.61,98.67,787.76z"/>
		<path class="st8" d="M111.22,934.55c0-6.76,0.06-12.18-0.03-17.59c-0.03-2.27,0.19-3.77,3.14-3.77c3.35-0.01,2.72,2.15,2.72,4.05
			c0.03,7.83,0.05,15.66-0.03,23.49c-0.01,1.34,0.84,3.22-1.06,3.91c-1.94,0.71-3.45-0.34-4.82-1.77
			c-3.8-3.96-7.65-7.89-11.56-11.75c-3.2-3.16-6.58-6.15-10.72-8.06c-4.87-2.25-10.56-1.85-13.03,1.17
			c-3.39,4.14-2.49,8.63-0.65,13.17c0.61,1.51,3.96,3.05,0.09,5c-3.47,1.74-4.04-0.98-5.07-2.84c-2.45-4.4-2.91-9.22-2.03-14.07
			c1.54-8.53,10.36-12.99,19.53-9.95c8.07,2.68,13.49,8.94,19.34,14.6C108.1,931.19,109.09,932.31,111.22,934.55z"/>
		<path class="st7" d="M1135.01,1017.6c0,10.32-0.18,20.65,0.1,30.97c0.1,3.65-1.4,4.14-4.36,3.95c-2.61-0.17-5.1,0.64-5.05-3.82
			c0.24-20.81,0.22-41.63,0.01-62.44c-0.04-4.17,2.05-3.97,4.93-4.01c2.86-0.04,4.57,0.15,4.47,3.89
			C1134.83,996.61,1135.01,1007.11,1135.01,1017.6z"/>
		<path class="st7" d="M1550.49,596.31c-9.54,0-9.55,0-7.53-9.45c1-4.7,2.1-9.39,3.02-14.11c0.38-1.98,1.26-2.76,3.34-2.73
			c7.15,0.1,14.29,0.1,21.44,0.01c2.58-0.03,2.82,0.83,1.72,2.9c-3.74,7.03-7.48,14.07-11.07,21.18c-0.91,1.8-2.08,2.32-3.93,2.23
			C1555.14,596.23,1552.81,596.31,1550.49,596.31z"/>
		<path class="st6" d="M2497.28,1008.46c0,7.63-0.15,15.27,0.07,22.9c0.09,3.31-1.68,3.29-4.04,3.31c-2.39,0.02-4.18-0.09-4.23-3.27
			c-0.22-15.44-0.58-30.87-0.9-46.3c-0.02-0.8-0.24-1.97,0.8-2.04c2.8-0.19,5.77-0.67,8.38,0.05c1.94,0.54,0.82,3.24,0.85,4.94
			c0.12,6.8,0.05,13.61,0.05,20.42C2497.93,1008.46,2497.6,1008.46,2497.28,1008.46z"/>
		<path class="st6" d="M984.7,1027.54c0,7.13-0.26,14.27,0.09,21.38c0.23,4.67-2.77,3.51-5.18,3.53c-2.43,0.02-5.27,1.09-5.11-3.56
			c0.49-14.27,0.54-28.55,0.77-42.82c0.05-3.16,0.28-5.74,4.86-5.3c2.94,0.28,3.68,1.33,3.67,3.86c-0.03,7.64-0.01,15.27-0.01,22.91
			C984.1,1027.54,984.4,1027.54,984.7,1027.54z"/>
		<path class="st5" d="M75.97,702.8c-0.15,2.17,1.58,3.58,2.21,5.43c0.32,0.95,1.87,2.03,0.02,2.8c-1.41,0.59-3.39,2-4.44-0.02
			c-2.02-3.91-5.26-7.33-5.2-12.18c0.02-1.9,0.19-3.09,2.63-3.08c14.47,0.09,28.94,0.11,43.42,0c3.1-0.02,2.26,1.96,2.47,3.65
			c0.32,2.63-1.07,2.95-3.24,2.94c-10.98-0.07-21.96-0.05-32.94-0.01C79.27,702.35,77.57,701.93,75.97,702.8z"/>
		<path class="st8" d="M99.78,959.39c0,2.15-0.08,4.3,0.02,6.45c0.09,2.02-0.51,3.02-2.77,3.02c-2.22,0-2.33-1.23-2.32-2.86
			c0.03-4.46,0.05-8.93-0.01-13.39c-0.02-1.75,0.32-2.81,2.44-2.73c1.83,0.07,2.76,0.58,2.67,2.58
			C99.7,954.76,99.78,957.07,99.78,959.39z"/>
		<path class="st8" d="M94.72,631.54c0-2.14,0.06-4.29-0.02-6.43c-0.06-1.63,0.44-2.47,2.22-2.39c1.58,0.07,2.94,0.04,2.88,2.3
			c-0.11,4.62-0.08,9.24,0,13.85c0.04,1.88-0.64,2.67-2.56,2.7c-1.92,0.03-2.66-0.68-2.56-2.61
			C94.81,636.5,94.72,634.02,94.72,631.54z"/>
		<path class="st8" d="M2498.76,1048.37c-0.19,3.33-1.63,5.91-5.2,5.99c-3.65,0.08-5.74-1.98-5.73-5.87
			c0.01-3.79,1.86-6.06,5.58-6.04C2497.01,1042.46,2498.48,1045,2498.76,1048.37z"/>
		<path class="st8" d="M985.01,987.74c-0.28,3.04-1.66,5.43-5.42,5.38c-3.96-0.05-5.55-2.55-5.54-6.14
			c0.01-3.49,1.98-5.78,5.45-5.77C983.26,981.22,985,983.71,985.01,987.74z"/>
		<path class="st9" d="M383.12,908.31c-14.44,8.41-27.97,16.18-41.38,24.14c-34.37,20.39-68.68,40.87-103.03,61.3
			c-6.7,3.98-6.7,3.93-10.58-2.51c-40.97-68.09-59.61-142.05-51.56-220.92c14.24-139.57,85.88-240.61,211.83-302.31
			c50.81-24.89,105.38-34.86,161.84-33.75c137.58,2.7,263.9,84.75,322.68,209.02c27,57.07,38.52,117.11,34.83,179.99
			c-3.62,61.69-21.98,118.84-54.46,171.47c-2.09,3.39-3.55,3.65-6.89,1.66c-46.51-27.66-93.1-55.18-139.68-82.73
			c-2.69-1.59-5.43-3.09-8.2-4.66c-1.35,1.97-0.8,3.83-0.79,5.56c0.16,36.49,0.3,72.98,0.59,109.47
			c0.28,34.65,0.68,69.3,1.18,103.95c0.05,3.45-1.31,4.86-4.27,6.22c-44.31,20.31-90.81,31.39-139.49,33.22
			c-59.31,2.23-115.87-9.27-169.74-34.2c-3.67-1.7-5.03-3.66-4.98-7.8c0.8-69.97,1.42-139.93,2.08-209.9
			C383.13,913.53,383.12,911.54,383.12,908.31z M680.99,946.46c0-55.65-0.03-111.31,0.07-166.96c0.01-3.48-0.87-5.66-3.83-7.81
			c-44.07-32-88.05-64.12-131.95-96.35c-3.08-2.26-4.98-2.31-8.12-0.03c-44.86,32.61-89.83,65.07-134.83,97.48
			c-2.54,1.83-3.67,3.68-3.66,6.93c0.09,111.31,0.09,222.61,0.01,333.92c0,3.12,0.89,4.73,3.84,5.92
			c25.38,10.3,51.51,17.94,78.49,22.79c4.77,0.86,5.51-0.36,5.48-4.78c-0.17-33.32-0.18-66.65-0.07-99.97
			c0.11-35.05,30.97-60.76,65.45-54.69c26.34,4.64,45.15,27.9,45.23,56.17c0.08,32.99,0.07,65.98-0.06,98.97
			c-0.01,3.7,0.54,4.85,4.63,4.1c25.63-4.67,50.53-11.78,74.74-21.41c3.47-1.38,4.68-3.01,4.67-6.82
			C680.94,1058.1,680.99,1002.28,680.99,946.46z M338.02,636.4c-15.33,0-30.67,0.13-45.99-0.09c-3.85-0.06-4.91,1.15-4.67,4.83
			c0.3,4.81,0.23,9.67,0.02,14.49c-0.13,3.02,0.81,4.45,3.92,3.96c3.69-0.59,4.79,0.81,4.77,4.62c-0.16,31.83-0.13,63.66-0.02,95.49
			c0.01,3.34-0.7,5.11-4.36,4.52c-3.19-0.52-4.49,0.68-4.32,4.07c0.25,4.99,0.27,10.01-0.01,14.99c-0.19,3.38,1.02,4.62,4.25,4.12
			c3.57-0.56,4.58,1.07,4.43,4.49c-0.25,5.66,0.12,11.34-0.14,16.99c-0.15,3.35,1.02,4.21,4.25,4.17c13-0.16,26,0.15,38.99-0.19
			c4.59-0.12,5.22,1.71,4.96,5.52c-0.23,3.3,0.75,6.43-4.77,6.25c-12.82-0.42-25.66-0.11-38.49-0.15c-2.8-0.01-5.06-0.33-5.03,3.96
			c0.03,4.48,2.64,3.72,5.22,3.73c19.5,0.01,39,0.23,58.49-0.14c5.55-0.1,4.57,2.93,4.74,6.22c0.18,3.59-0.01,5.7-4.81,5.63
			c-19.49-0.31-38.99-0.04-58.49-0.21c-3.74-0.03-5.12,0.71-5.09,4.85c0.2,26.33,0.17,52.66,0.03,78.99
			c-0.02,4.26,0.56,5.22,4.74,2.97c25.94-13.97,51.98-27.77,78.07-41.46c3.1-1.63,4.13-3.48,4.12-6.93
			c-0.14-29.83-0.06-59.66-0.1-89.49c0-2.95-0.36-5.86,4.13-5.26c1.81,0.24,2.12-1.08,2.11-2.59c-0.03-6-0.05-12,0.01-18
			c0.02-2-0.93-2.78-2.74-2.51c-3.61,0.53-3.52-1.73-3.52-4.25c0.05-17,0.02-34,0.02-50.99c0-15-0.04-30,0.05-44.99
			c0.01-1.54-1.14-4.45,1.77-4.24c4.75,0.35,4.51-2.36,4.42-5.55c-0.12-4.5-0.27-9.01,0.04-13.49c0.25-3.63-1.13-4.43-4.52-4.39
			C369.01,636.5,353.51,636.4,338.02,636.4z M867.21,892.68c-0.17-5.54-0.33-10-1.05-14.47c-6-36.92-37.23-65.75-73.9-68.09
			c-39.33-2.5-74.01,21.35-84.84,58.24c-0.88,3-0.59,4.68,2.36,6.43c42.22,25.02,84.38,50.14,126.45,75.41
			c3.18,1.91,4.85,1.3,7.11-1.05C858.86,933.09,866.94,914,867.21,892.68z M397.46,757.67c2.33-1.61,3.93-2.7,5.52-3.81
			c41.3-28.99,82.59-57.98,123.89-86.96c4.63-3.25,9.15-8.67,14.01-9.01c5.18-0.36,9.64,5.71,14.36,9.03
			c44.35,31.28,89.46,61.51,132.61,94.49c5.75,4.4,11.48,8.83,17.81,13.7c0-13.17-0.11-25.43,0.08-37.69
			c0.05-3.2-0.93-5.12-3.58-6.96c-42.84-29.68-85.6-59.46-128.38-89.22c-1.29-0.9-2.52-1.89-3.77-2.84
			c0.08-0.34,0.17-0.68,0.25-1.02c4.15,0,8.31,0,12.9,0c-0.65-0.95-0.79-1.28-1.03-1.48c-7.33-6.1-7.8-7.98-4.26-17.36
			c1.72-4.56-0.05-7.13-4.94-7.15c-1.5-0.01-3.04,0.22-4.49-0.04c-5.14-0.91-5.3,2.19-5.02,5.88c0.1,1.29,0.73,2.09,1.51,2.99
			c0.7,0.8,0.76,2.07,0.04,2.76c-0.94,0.9-1.77-0.21-2.49-0.76c-5.16-3.95-10.27-7.95-15.44-11.89c-1.28-0.98-1.77-1.91-1.63-3.73
			c0.35-4.63-2.14-7.37-6.06-7.35c-3.92,0.02-6.36,2.87-6.13,7.39c0.07,1.31,0.65,2.54-0.78,3.56c-6.33,4.53-12.63,9.11-19.09,13.79
			c-0.64-2.01-0.51-3.15,0.43-4.63c1.53-2.42,1.77-5.33-0.25-7.74c-0.77-0.92-12.79-0.2-13.11,0.59c-0.3,0.74-0.08,1.68-0.35,2.43
			c-1.1,3.08,1.98,5.04,1.99,7.79c0.01,2.83,0.16,5.68-0.07,8.49c-0.27,3.32-4.74,3.21-5.71,6.4c4.58,0.93,9.2-0.54,14.13,1.09
			c-2.16,1.54-3.77,2.7-5.39,3.85c-34.72,24.45-69.43,48.89-104.16,73.32c-1.77,1.25-3.49,2.21-3.45,4.95
			C397.54,732.51,397.46,744.49,397.46,757.67z M538.91,462.91c-13.96-0.51-32.33,1.19-50.45,4.34
			c-31.03,5.39-61.02,14.4-89.23,28.69c-5.32,2.69-12.52,3.87-15.34,8.72c-2.91,5.01-0.61,12.04-0.87,18.17
			c-0.01,0.33,0.02,0.67,0,1c-0.21,3.41,1.43,3.12,3.61,1.82c17.88-10.72,36.82-18.99,56.49-25.94
			c28.08-9.92,57.05-14.72,86.55-16.56c19.25-1.21,38.54,0.18,57.59,3.04c27.15,4.07,53.38,11.45,78.79,22.15
			c34.54,14.54,65.57,34.37,93.13,59.54c17.58,16.05,33.02,34.1,46.31,53.94c16.57,24.73,29.67,51.11,38.5,79.58
			c5.65,18.23,10.32,36.67,11.98,55.74c0.23,2.7,1.26,3.93,3.98,3.89c4.5-0.06,9-0.12,13.5,0.02c2.95,0.1,3.79-1.12,3.43-3.92
			c-1.94-14.95-4.77-29.73-8.48-44.33c-6.03-23.73-14.79-46.39-25.91-68.24c-14.96-29.4-34.25-55.64-56.99-79.32
			c-11.13-11.59-23.52-21.9-36.24-31.84c-23.75-18.58-49.73-33.27-77.41-44.74C630.83,471.63,587.96,462.88,538.91,462.91z
			 M547.27,506.99c-12.06-0.46-26.06,0.93-40.04,2.92c-32.16,4.59-62.64,14.36-91.52,29.21c-13.74,7.07-13.74,7.06-13.7,22.39
			c0,0.67,0.04,1.34,0,2c-0.23,3.67,1.09,3.38,3.65,1.72c12.3-7.95,25.44-14.29,38.88-20.05c31.96-13.71,65.52-19.76,100.08-21.19
			c7.83-0.32,15.6,0.4,23.37,1.04c7.58,0.63,15.2,1.18,22.69,2.43c19.15,3.21,37.85,7.99,56.04,15.12
			c19.28,7.56,37.52,16.96,54.63,28.45c17.96,12.05,34.07,26.36,48.63,42.4c6.13,6.76,11.9,13.81,17.35,21.13
			c13.16,17.69,23.99,36.74,32.43,57.08c7.45,17.96,13.28,36.5,16.18,55.77c2.08,13.82,1.76,13.87,15.65,13.58
			c0.33-0.01,0.67-0.02,1,0c2.25,0.13,2.99-0.32,2.72-3.1c-0.52-5.29-1.37-10.51-2.34-15.71c-4.96-26.59-13.47-52.06-25.67-76.14
			c-18.63-36.78-44.04-68.19-75.98-94.38c-24.25-19.89-51.02-35.39-80.24-46.37C618.36,513,584.43,506.52,547.27,506.99z
			 M542.91,551.04c-12.68-1.12-27.2,0.8-41.57,3.2c-25.18,4.21-49.31,11.98-72.09,23.65c-13.65,7-10.97,3.33-11.22,18.14
			c-0.09,5.44,0.16,5.64,5.13,2.85c8.42-4.73,17.01-9.04,25.85-12.95c29.07-12.83,59.65-18.63,91.21-19.9
			c6.63-0.27,13.25,0.43,19.88,0.78c9.8,0.52,19.52,1.66,29.06,3.52c25.89,5.05,50.44,13.89,73.53,26.89
			c25.96,14.62,48.17,33.62,67.29,56.27c23.97,28.4,40,60.9,48.94,96.93c2.68,10.78,2.62,10.79,13.64,10.56c0.33-0.01,0.67-0.02,1,0
			c2.99,0.19,3.65-1.02,3.02-3.95c-4.55-21.17-11.13-41.68-20.67-61.12c-16.22-33.05-38.26-61.57-66.61-85.27
			c-25.95-21.7-54.88-37.83-87.07-47.99C597.11,554.75,571.37,550.31,542.91,551.04z M288.21,627.11c33.5,0,66.94,0,100.96,0
			c-0.85-0.9-1.15-1.3-1.52-1.6c-8.03-6.49-8.8-9.59-4.92-19.96c1.97-5.28-0.13-8.34-5.73-8.34c-2,0-4.03,0.21-5.99-0.05
			c-3.92-0.52-4.85,0.96-5.15,4.88c-0.25,3.39,3.8,5.55,1.54,9.63c-7.21-5.6-14.23-11.08-21.31-16.5c-1.38-1.05-0.89-2.25-0.81-3.57
			c0.32-5.22-2.82-8.73-7.43-8.47c-4.35,0.25-7.45,4.02-6.56,8.75c0.42,2.21,0,3.27-1.72,4.48c-6.26,4.41-12.4,8.98-18.63,13.44
			c-0.88,0.63-2,2.03-2.98,1.02c-1.03-1.06-1.06-2.75,0.31-3.97c2.73-2.45,1.71-5.74,1.08-8.34c-0.64-2.61-3.72-1.06-5.7-1.25
			c-2.48-0.23-5,0.09-7.49-0.09c-2.7-0.19-3.08,1.07-3.47,3.48c-0.56,3.44,2.09,5.7,2.34,8.59c0.56,6.55,1.48,13.49-6.47,16.9
			C288.38,626.23,288.35,626.69,288.21,627.11z"/>
		<path class="st10" d="M362.31,1018.2c0,31.82,0.02,63.63-0.02,95.45c-0.01,6.44-0.13,6.49-5.79,3.51
			c-44.21-23.29-81.43-54.55-109.5-96.21c-5.6-8.32-5.5-8.39,2.9-13.35c36.38-21.48,72.76-42.97,109.15-64.44
			c4.79-2.83,4.83-2.8,4.83,2.59c0.01,24.15,0,48.31,0,72.46C363.36,1018.2,362.84,1018.2,362.31,1018.2z"/>
		<path class="st10" d="M715.51,940.91c3.35,1.95,6.61,3.84,9.86,5.76c35.66,21.04,71.28,42.13,107.02,63.03
			c3.59,2.1,4.07,3.56,1.81,7.14c-22.34,35.49-52.51,62.97-87.18,85.91c-8.46,5.6-17.29,10.56-26.33,15.19
			c-3.49,1.79-4.79,1.67-4.78-2.85c0.06-22.16-0.15-44.31-0.31-66.47c-0.24-33.98-0.53-67.96-0.76-101.93
			C714.83,944.94,714.39,943.1,715.51,940.91z"/>
		<path d="M97.21,731.5c-0.15-0.4-0.3-0.8-0.45-1.19c0.58,0.03,1.16,0.07,1.73,0.1C98.07,730.77,97.64,731.13,97.21,731.5z"/>
		<path class="st11" d="M680.99,946.46c0,55.82-0.04,111.64,0.1,167.46c0.01,3.81-1.2,5.45-4.67,6.82
			c-24.21,9.63-49.1,16.74-74.74,21.41c-4.1,0.75-4.65-0.41-4.63-4.1c0.13-32.99,0.14-65.98,0.06-98.97
			c-0.07-28.27-18.89-51.53-45.23-56.17c-34.48-6.07-65.34,19.64-65.45,54.69c-0.11,33.32-0.1,66.65,0.07,99.97
			c0.02,4.42-0.71,5.64-5.48,4.78c-26.98-4.84-53.11-12.48-78.49-22.79c-2.95-1.2-3.84-2.8-3.84-5.92
			c0.08-111.31,0.08-222.61-0.01-333.92c0-3.25,1.12-5.1,3.66-6.93c45-32.41,89.97-64.88,134.83-97.48
			c3.13-2.28,5.04-2.23,8.12,0.03c43.9,32.23,87.88,64.35,131.95,96.35c2.96,2.15,3.84,4.33,3.83,7.81
			C680.96,835.16,680.99,890.81,680.99,946.46z M577.26,872.53c-0.04,0-0.09,0-0.13,0c0-13.65,0.34-27.3-0.08-40.94
			c-0.62-19.63-16.6-34.21-36.49-33.89c-18.78,0.3-34.28,15.95-34.39,35.15c-0.16,26.8,0.01,53.59-0.11,80.39
			c-0.01,3.36,0.93,4.5,4.39,4.87c20.94,2.23,41.84,2,62.77-0.04c3.19-0.31,4.15-1.41,4.12-4.6
			C577.17,899.83,577.26,886.18,577.26,872.53z M535.4,754c0,5.66,0.31,11.34-0.1,16.97c-0.33,4.68,2.52,3.9,5.33,4.07
			c3.07,0.19,4.81-0.1,4.71-4.07c-0.29-11.14,0.04-22.3-0.18-33.45c-0.07-3.59,1.15-4.67,4.56-4.4c3.14,0.25,6.34-0.15,9.48,0.1
			c3.5,0.28,3.41-1.96,3.04-4.12c-0.36-2.15,1.95-5.84-2.91-5.81c-3.66,0.02-7.33-0.09-10.98,0.03c-2.39,0.08-3.21-0.87-3.14-3.22
			c0.13-4.66,0.08-9.32,0-13.98c-0.02-1.16,0.6-2.58-1.39-3.18c-5.46-1.64-8.41,0.32-8.41,5.83c0,1,0,2,0,3
			c0,11.5,0,11.5-11.73,11.53c-1,0-2,0.01-3,0.01c-0.84,0.01-2.06,0.07-2.13,0.87c-0.24,2.63-0.63,5.4-0.05,7.9
			c0.45,1.96,2.87,0.98,4.43,1.05c2.66,0.13,5.34,0.23,7.98-0.01c3.39-0.3,4.76,0.79,4.58,4.39
			C535.19,743.01,535.4,748.51,535.4,754z M539.96,935.77c-16.3,0-32.61,0.11-48.91-0.08c-3.63-0.04-3.95,1.54-3.98,4.47
			c-0.03,3.05,0.57,4.41,4.07,4.39c32.44-0.12,64.89-0.12,97.33-0.01c3.27,0.01,4.29-0.91,4.26-4.22c-0.04-3.26-0.6-4.69-4.34-4.65
			C572.24,935.89,556.1,935.77,539.96,935.77z M540.5,951.97c-18.5,0-37,0.03-55.49-0.04c-2.64-0.01-4.35,0.08-4.26,3.6
			c0.07,3.07,0.93,3.96,3.99,3.95c36.83-0.09,73.66-0.1,110.49,0.01c3.1,0.01,3.85-0.91,3.94-3.94c0.11-3.47-1.47-3.64-4.16-3.63
			C576.83,952.01,558.67,951.97,540.5,951.97z"/>
		<path class="st12" d="M338.02,636.4c15.5,0,31,0.09,46.49-0.07c3.4-0.04,4.78,0.76,4.52,4.39c-0.31,4.48-0.17,9-0.04,13.49
			c0.09,3.19,0.33,5.91-4.42,5.55c-2.9-0.22-1.76,2.7-1.77,4.24c-0.09,15-0.05,30-0.05,44.99c0,17,0.02,34-0.02,50.99
			c-0.01,2.52-0.1,4.78,3.52,4.25c1.81-0.27,2.76,0.52,2.74,2.51c-0.06,6-0.04,12-0.01,18c0.01,1.51-0.3,2.83-2.11,2.59
			c-4.49-0.6-4.14,2.3-4.13,5.26c0.04,29.83-0.04,59.66,0.1,89.49c0.02,3.45-1.02,5.3-4.12,6.93
			c-26.09,13.69-52.13,27.49-78.07,41.46c-4.18,2.25-4.76,1.3-4.74-2.97c0.14-26.33,0.17-52.66-0.03-78.99
			c-0.03-4.14,1.35-4.88,5.09-4.85c19.5,0.17,39-0.1,58.49,0.21c4.8,0.08,4.99-2.04,4.81-5.63c-0.17-3.29,0.81-6.32-4.74-6.22
			c-19.49,0.36-38.99,0.15-58.49,0.14c-2.58,0-5.19,0.75-5.22-3.73c-0.03-4.29,2.23-3.97,5.03-3.96
			c12.83,0.04,25.67-0.27,38.49,0.15c5.52,0.18,4.54-2.95,4.77-6.25c0.26-3.8-0.37-5.64-4.96-5.52c-12.99,0.34-26,0.02-38.99,0.19
			c-3.23,0.04-4.4-0.82-4.25-4.17c0.26-5.65-0.11-11.34,0.14-16.99c0.15-3.42-0.85-5.05-4.43-4.49c-3.23,0.5-4.44-0.74-4.25-4.12
			c0.28-4.98,0.26-10,0.01-14.99c-0.17-3.39,1.13-4.58,4.32-4.07c3.66,0.59,4.37-1.18,4.36-4.52c-0.11-31.83-0.13-63.66,0.02-95.49
			c0.02-3.81-1.08-5.21-4.77-4.62c-3.11,0.5-4.06-0.94-3.92-3.96c0.21-4.82,0.29-9.68-0.02-14.49c-0.23-3.68,0.82-4.89,4.67-4.83
			C307.35,636.53,322.68,636.4,338.02,636.4z M316.94,721.57c0,8.33,0.04,16.65-0.02,24.98c-0.02,2.17,0.07,3.72,2.95,3.97
			c12.64,1.09,25.26,1.12,37.9-0.06c2.36-0.22,3.06-1.23,3.05-3.49c-0.07-16.49,0.26-32.98-0.15-49.46
			c-0.31-12.48-10.45-21.78-22.38-21.49c-11.91,0.29-21.24,10.13-21.34,22.57C316.89,706.25,316.94,713.91,316.94,721.57z"/>
		<path class="st13" d="M867.21,892.68c-0.27,21.32-8.35,40.41-23.86,56.47c-2.27,2.35-3.94,2.96-7.11,1.05
			c-42.07-25.27-84.24-50.39-126.45-75.41c-2.95-1.75-3.24-3.43-2.36-6.43c10.83-36.89,45.51-60.74,84.84-58.24
			c36.67,2.33,67.9,31.17,73.9,68.09C866.88,882.68,867.04,887.14,867.21,892.68z"/>
		<path class="st12" d="M397.46,757.67c0-13.18,0.08-25.16-0.06-37.13c-0.03-2.74,1.68-3.7,3.45-4.95
			c34.73-24.43,69.45-48.88,104.16-73.32c1.62-1.14,3.22-2.3,5.39-3.85c-4.93-1.63-9.55-0.16-14.13-1.09
			c0.97-3.19,5.44-3.08,5.71-6.4c0.23-2.81,0.08-5.66,0.07-8.49c-0.01-2.75-3.09-4.72-1.99-7.79c0.27-0.76,0.05-1.7,0.35-2.43
			c0.32-0.79,12.34-1.51,13.11-0.59c2.02,2.41,1.78,5.32,0.25,7.74c-0.94,1.49-1.07,2.63-0.43,4.63
			c6.47-4.68,12.76-9.26,19.09-13.79c1.43-1.02,0.85-2.25,0.78-3.56c-0.22-4.53,2.21-7.38,6.13-7.39c3.91-0.01,6.41,2.72,6.06,7.35
			c-0.14,1.82,0.35,2.75,1.63,3.73c5.16,3.94,10.28,7.94,15.44,11.89c0.72,0.55,1.55,1.66,2.49,0.76c0.72-0.69,0.66-1.96-0.04-2.76
			c-0.78-0.9-1.41-1.7-1.51-2.99c-0.28-3.69-0.12-6.78,5.02-5.88c1.45,0.26,2.99,0.03,4.49,0.04c4.89,0.02,6.67,2.59,4.94,7.15
			c-3.54,9.38-3.07,11.26,4.26,17.36c0.24,0.2,0.37,0.53,1.03,1.48c-4.6,0-8.75,0-12.9,0c-0.08,0.34-0.17,0.68-0.25,1.02
			c1.26,0.95,2.48,1.94,3.77,2.84c42.78,29.76,85.54,59.54,128.38,89.22c2.65,1.83,3.62,3.76,3.58,6.96
			c-0.19,12.26-0.08,24.52-0.08,37.69c-6.34-4.88-12.06-9.31-17.81-13.7c-43.15-32.98-88.25-63.21-132.61-94.49
			c-4.72-3.33-9.18-9.4-14.36-9.03c-4.86,0.34-9.38,5.76-14.01,9.01c-41.3,28.98-82.59,57.97-123.89,86.96
			C401.39,754.97,399.79,756.06,397.46,757.67z"/>
		<path class="st14" d="M538.91,462.91c49.04-0.02,91.91,8.72,132.93,25.73c27.68,11.47,53.66,26.16,77.41,44.74
			c12.72,9.95,25.11,20.25,36.24,31.84c22.74,23.68,42.03,49.92,56.99,79.32c11.12,21.85,19.88,44.52,25.91,68.24
			c3.71,14.6,6.54,29.38,8.48,44.33c0.36,2.8-0.48,4.01-3.43,3.92c-4.49-0.15-9-0.09-13.5-0.02c-2.72,0.04-3.74-1.19-3.98-3.89
			c-1.66-19.07-6.33-37.51-11.98-55.74c-8.83-28.47-21.93-54.85-38.5-79.58c-13.29-19.84-28.74-37.88-46.31-53.94
			c-27.57-25.17-58.6-45-93.13-59.54c-25.41-10.7-51.64-18.08-78.79-22.15c-19.05-2.86-38.34-4.24-57.59-3.04
			c-29.5,1.85-58.47,6.65-86.55,16.56c-19.67,6.95-38.61,15.22-56.49,25.94c-2.18,1.31-3.82,1.6-3.61-1.82c0.02-0.33-0.01-0.67,0-1
			c0.26-6.14-2.04-13.17,0.87-18.17c2.82-4.85,10.02-6.02,15.34-8.72c28.22-14.29,58.21-23.3,89.23-28.69
			C506.59,464.1,524.95,462.4,538.91,462.91z"/>
		<path class="st14" d="M547.27,506.99c37.16-0.47,71.09,6.01,103.79,18.3c29.22,10.98,55.99,26.49,80.24,46.37
			c31.95,26.2,57.36,57.61,75.98,94.38c12.2,24.09,20.71,49.56,25.67,76.14c0.97,5.2,1.82,10.42,2.34,15.71
			c0.27,2.78-0.46,3.23-2.72,3.1c-0.33-0.02-0.67-0.01-1,0c-13.89,0.29-13.57,0.24-15.65-13.58c-2.91-19.28-8.73-37.82-16.18-55.77
			c-8.44-20.33-19.27-39.39-32.43-57.08c-5.44-7.32-11.21-14.37-17.35-21.13c-14.56-16.04-30.67-30.35-48.63-42.4
			c-17.12-11.49-35.35-20.89-54.63-28.45c-18.19-7.13-36.88-11.91-56.04-15.12c-7.49-1.25-15.11-1.81-22.69-2.43
			c-7.77-0.64-15.54-1.37-23.37-1.04c-34.56,1.43-68.12,7.48-100.08,21.19c-13.44,5.77-26.58,12.1-38.88,20.05
			c-2.56,1.66-3.88,1.95-3.65-1.72c0.04-0.66,0.01-1.33,0-2c-0.04-15.33-0.04-15.32,13.7-22.39c28.87-14.86,59.36-24.62,91.52-29.21
			C521.21,507.92,535.21,506.53,547.27,506.99z"/>
		<path class="st14" d="M542.91,551.04c28.47-0.73,54.2,3.71,79.32,11.63c32.19,10.15,61.12,26.29,87.07,47.99
			c28.34,23.7,50.38,52.22,66.61,85.27c9.54,19.44,16.13,39.94,20.67,61.12c0.63,2.93-0.03,4.14-3.02,3.95c-0.33-0.02-0.67-0.01-1,0
			c-11.02,0.23-10.96,0.22-13.64-10.56c-8.94-36.03-24.97-68.53-48.94-96.93c-19.12-22.65-41.34-41.65-67.29-56.27
			c-23.08-13-47.64-21.84-73.53-26.89c-9.54-1.86-19.26-3-29.06-3.52c-6.63-0.35-13.25-1.04-19.88-0.78
			c-31.56,1.27-62.14,7.06-91.21,19.9c-8.84,3.9-17.43,8.22-25.85,12.95c-4.97,2.79-5.22,2.6-5.13-2.85
			c0.25-14.82-2.43-11.15,11.22-18.14c22.78-11.67,46.91-19.44,72.09-23.65C515.71,551.84,530.23,549.92,542.91,551.04z"/>
		<path class="st5" d="M288.21,627.11c0.15-0.42,0.17-0.89,0.36-0.97c7.94-3.41,7.03-10.35,6.47-16.9c-0.25-2.89-2.9-5.15-2.34-8.59
			c0.39-2.4,0.77-3.67,3.47-3.48c2.49,0.18,5.01-0.14,7.49,0.09c1.98,0.19,5.07-1.36,5.7,1.25c0.63,2.59,1.65,5.89-1.08,8.34
			c-1.37,1.23-1.34,2.91-0.31,3.97c0.98,1.01,2.1-0.39,2.98-1.02c6.22-4.46,12.37-9.03,18.63-13.44c1.71-1.21,2.14-2.27,1.72-4.48
			c-0.89-4.73,2.21-8.5,6.56-8.75c4.61-0.26,7.76,3.25,7.43,8.47c-0.08,1.33-0.57,2.52,0.81,3.57c7.08,5.42,14.1,10.91,21.31,16.5
			c2.26-4.08-1.8-6.24-1.54-9.63c0.29-3.92,1.23-5.39,5.15-4.88c1.96,0.26,3.99,0.04,5.99,0.05c5.6,0,7.7,3.07,5.73,8.34
			c-3.87,10.37-3.1,13.47,4.92,19.96c0.37,0.3,0.67,0.7,1.52,1.6C355.15,627.11,321.71,627.11,288.21,627.11z"/>
		<path class="st9" d="M577.26,872.53c0,13.65-0.1,27.3,0.07,40.94c0.04,3.19-0.92,4.29-4.12,4.6c-20.93,2.04-41.83,2.27-62.77,0.04
			c-3.46-0.37-4.4-1.51-4.39-4.87c0.12-26.8-0.06-53.59,0.11-80.39c0.12-19.2,15.61-34.85,34.39-35.15
			c19.89-0.32,35.87,14.26,36.49,33.89c0.43,13.63,0.08,27.29,0.08,40.94C577.18,872.53,577.22,872.53,577.26,872.53z"/>
		<path class="st9" d="M535.4,754c0-5.49-0.2-10.99,0.07-16.47c0.18-3.6-1.18-4.7-4.58-4.39c-2.64,0.24-5.33,0.14-7.98,0.01
			c-1.55-0.08-3.98,0.9-4.43-1.05c-0.57-2.51-0.19-5.27,0.05-7.9c0.07-0.8,1.29-0.86,2.13-0.87c1-0.01,2-0.01,3-0.01
			c11.73-0.03,11.73-0.03,11.73-11.53c0-1,0-2,0-3c0.01-5.51,2.96-7.47,8.41-5.83c1.99,0.6,1.37,2.02,1.39,3.18
			c0.08,4.66,0.13,9.32,0,13.98c-0.07,2.35,0.75,3.3,3.14,3.22c3.66-0.12,7.32,0,10.98-0.03c4.86-0.03,2.55,3.66,2.91,5.81
			c0.36,2.15,0.46,4.39-3.04,4.12c-3.14-0.25-6.34,0.15-9.48-0.1c-3.41-0.27-4.63,0.8-4.56,4.4c0.22,11.15-0.11,22.3,0.18,33.45
			c0.1,3.97-1.64,4.26-4.71,4.07c-2.8-0.17-5.66,0.61-5.33-4.07C535.7,765.34,535.4,759.66,535.4,754z"/>
		<path class="st9" d="M539.96,935.77c16.14,0,32.28,0.12,48.41-0.09c3.74-0.05,4.31,1.39,4.34,4.65c0.04,3.31-0.99,4.23-4.26,4.22
			c-32.44-0.11-64.89-0.11-97.33,0.01c-3.49,0.01-4.1-1.35-4.07-4.39c0.03-2.93,0.36-4.52,3.98-4.47
			C507.35,935.87,523.66,935.77,539.96,935.77z"/>
		<path class="st9" d="M540.5,951.97c18.16,0,36.33,0.04,54.49-0.04c2.7-0.01,4.27,0.16,4.16,3.63c-0.09,3.03-0.84,3.95-3.94,3.94
			c-36.83-0.1-73.66-0.1-110.49-0.01c-3.06,0.01-3.91-0.88-3.99-3.95c-0.09-3.52,1.63-3.61,4.26-3.6
			C503.51,952,522.01,951.97,540.5,951.97z"/>
		<path class="st9" d="M316.94,721.57c0-7.66-0.05-15.32,0.01-22.98c0.1-12.44,9.43-22.28,21.34-22.57
			c11.92-0.29,22.06,9.01,22.38,21.49c0.41,16.48,0.08,32.97,0.15,49.46c0.01,2.26-0.7,3.27-3.05,3.49
			c-12.64,1.18-25.26,1.15-37.9,0.06c-2.89-0.25-2.97-1.8-2.95-3.97C316.97,738.23,316.94,729.9,316.94,721.57z"/>
	</g>
	<polygon class="st15" points="1137.74,932.44 1192.32,932.44 1200.87,915.22 1270.77,915.22 1281.6,932.44 1339.92,932.44 
		1327.76,907.85 1321.93,895.65 1178.28,890.08 1159.43,887.12 	"/>
</g>
</svg>
